<svg xmlns="http://www.w3.org/2000/svg" width="90mm" height="50mm" viewBox="0 0 900 500">
  <defs>
    <style>
      @font-face{font-family:Manrope;src:url('Manrope-Regular.ttf');font-weight:400}
      @font-face{font-family:Manrope;src:url('Manrope-SemiBold.ttf');font-weight:600}
      @font-face{font-family:Manrope;src:url('Manrope-Bold.ttf');font-weight:700}
      text{font-family:Manrope,sans-serif}
    </style>
    <pattern id="topo" width="190" height="118" patternUnits="userSpaceOnUse"><path d="M-36 69C18 15 81 18 122 58s82 34 118-4" fill="none" stroke="#ACD72B" stroke-width="1.1" opacity=".075"/><path d="M-31 91C19 45 77 41 118 81s82 31 119-1" fill="none" stroke="#ACD72B" stroke-width="1" opacity=".05"/></pattern>
  </defs>
  <rect width="900" height="500" fill="#0B2D20"/><rect width="900" height="500" fill="url(#topo)"/>
  <image href="../brand/lev-travel-lion-green.svg" x="64" y="49" width="62" height="72" style="filter:brightness(0) invert(1)"/>
  <text x="142" y="92" fill="#F7F5EE" font-size="27" font-weight="800" letter-spacing="-1.65">green<tspan fill="#9BC51B">.</tspan>lev<tspan fill="#9BC51B">.</tspan>travel</text>
  <circle cx="67" cy="195" r="4.5" fill="#ACD72B"/><text x="86" y="200" fill="#ACD72B" font-size="11" font-weight="700" letter-spacing="2.3">ПОЧНІМО З РОЗМОВИ</text>
  <text x="64" y="274" fill="#F7F5EE" font-size="38" font-weight="700" letter-spacing="-1.8"><tspan x="64">Наступне місце сили</tspan><tspan x="64" dy="48" fill="#9BC51B">починається тут.</tspan></text>
  <line x1="64" y1="375" x2="836" y2="375" stroke="#F7F5EE" opacity=".17"/>
  <text x="64" y="428" fill="#F7F5EE" font-size="19" font-weight="600">+38 067 589 49 11</text>
  <text x="393" y="428" fill="#F7F5EE" font-size="19" font-weight="600">@green.lev.travel</text>
  <circle cx="805" cy="418" r="28" fill="#9BC51B"/><path d="M793 418h24m-9-9 9 9-9 9" fill="none" stroke="#F7F5EE" stroke-width="2.4" stroke-linecap="round" stroke-linejoin="round"/>
</svg>
